<?xml version="1.0" encoding="UTF-8" standalone="no"?>
<!DOCTYPE svg PUBLIC "-//W3C//DTD SVG 1.1//EN"
 "http://www.w3.org/Graphics/SVG/1.1/DTD/svg11.dtd">
<!-- Generated by graphviz version 7.1.0 (0)
 -->
<!-- Pages: 1 -->
<svg width="1704pt" height="908pt"
 viewBox="0.00 0.00 1703.61 908.00" xmlns="http://www.w3.org/2000/svg" xmlns:xlink="http://www.w3.org/1999/xlink">
<g id="graph0" class="graph" transform="scale(1 1) rotate(0) translate(4 904)">
<polygon fill="white" stroke="none" points="-4,4 -4,-904 1699.61,-904 1699.61,4 -4,4"/>
<!-- [root] azurerm_container_app.app (expand) -->
<g id="node1" class="node">
<title>[root] azurerm_container_app.app (expand)</title>
<polygon fill="none" stroke="black" points="787.11,-756 572.11,-756 572.11,-720 787.11,-720 787.11,-756"/>
<text text-anchor="middle" x="679.61" y="-734.3" font-family="Times,serif" font-size="14.00">azurerm_container_app.app</text>
</g>
<!-- [root] data.local_file.fqdn (expand) -->
<g id="node17" class="node">
<title>[root] data.local_file.fqdn (expand)</title>
<polygon fill="none" stroke="black" points="967.11,-684 816.11,-684 816.11,-648 967.11,-648 967.11,-684"/>
<text text-anchor="middle" x="891.61" y="-662.3" font-family="Times,serif" font-size="14.00">data.local_file.fqdn</text>
</g>
<!-- [root] azurerm_container_app.app (expand)&#45;&gt;[root] data.local_file.fqdn (expand) -->
<g id="edge1" class="edge">
<title>[root] azurerm_container_app.app (expand)&#45;&gt;[root] data.local_file.fqdn (expand)</title>
<path fill="none" stroke="black" d="M732.55,-719.52C761.63,-709.92 797.87,-697.95 828.42,-687.86"/>
<polygon fill="black" stroke="black" points="829.13,-691.32 837.53,-684.86 826.93,-684.67 829.13,-691.32"/>
</g>
<!-- [root] azurerm_container_app.db (expand) -->
<g id="node2" class="node">
<title>[root] azurerm_container_app.db (expand)</title>
<polygon fill="none" stroke="black" points="1240.61,-468 1034.61,-468 1034.61,-432 1240.61,-432 1240.61,-468"/>
<text text-anchor="middle" x="1137.61" y="-446.3" font-family="Times,serif" font-size="14.00">azurerm_container_app.db</text>
</g>
<!-- [root] azurerm_container_app_environment_storage.crud&#45;container&#45;env&#45;storage (expand) -->
<g id="node4" class="node">
<title>[root] azurerm_container_app_environment_storage.crud&#45;container&#45;env&#45;storage (expand)</title>
<polygon fill="none" stroke="black" points="1407.11,-396 868.11,-396 868.11,-360 1407.11,-360 1407.11,-396"/>
<text text-anchor="middle" x="1137.61" y="-374.3" font-family="Times,serif" font-size="14.00">azurerm_container_app_environment_storage.crud&#45;container&#45;env&#45;storage</text>
</g>
<!-- [root] azurerm_container_app.db (expand)&#45;&gt;[root] azurerm_container_app_environment_storage.crud&#45;container&#45;env&#45;storage (expand) -->
<g id="edge2" class="edge">
<title>[root] azurerm_container_app.db (expand)&#45;&gt;[root] azurerm_container_app_environment_storage.crud&#45;container&#45;env&#45;storage (expand)</title>
<path fill="none" stroke="black" d="M1137.61,-431.7C1137.61,-424.41 1137.61,-415.73 1137.61,-407.54"/>
<polygon fill="black" stroke="black" points="1141.11,-407.62 1137.61,-397.62 1134.11,-407.62 1141.11,-407.62"/>
</g>
<!-- [root] azurerm_container_app_environment.crud&#45;container&#45;env (expand) -->
<g id="node3" class="node">
<title>[root] azurerm_container_app_environment.crud&#45;container&#45;env (expand)</title>
<polygon fill="none" stroke="black" points="1595.61,-324 1175.61,-324 1175.61,-288 1595.61,-288 1595.61,-324"/>
<text text-anchor="middle" x="1385.61" y="-302.3" font-family="Times,serif" font-size="14.00">azurerm_container_app_environment.crud&#45;container&#45;env</text>
</g>
<!-- [root] azurerm_subnet.crud&#45;subnet (expand) -->
<g id="node14" class="node">
<title>[root] azurerm_subnet.crud&#45;subnet (expand)</title>
<polygon fill="none" stroke="black" points="829.61,-252 607.61,-252 607.61,-216 829.61,-216 829.61,-252"/>
<text text-anchor="middle" x="718.61" y="-230.3" font-family="Times,serif" font-size="14.00">azurerm_subnet.crud&#45;subnet</text>
</g>
<!-- [root] azurerm_container_app_environment.crud&#45;container&#45;env (expand)&#45;&gt;[root] azurerm_subnet.crud&#45;subnet (expand) -->
<g id="edge3" class="edge">
<title>[root] azurerm_container_app_environment.crud&#45;container&#45;env (expand)&#45;&gt;[root] azurerm_subnet.crud&#45;subnet (expand)</title>
<path fill="none" stroke="black" d="M1183.08,-287.52C1082.98,-278.36 960.1,-266.32 841.17,-252.28"/>
<polygon fill="black" stroke="black" points="841.89,-248.84 831.55,-251.14 841.07,-255.79 841.89,-248.84"/>
</g>
<!-- [root] azurerm_container_app_environment_storage.crud&#45;container&#45;env&#45;storage (expand)&#45;&gt;[root] azurerm_container_app_environment.crud&#45;container&#45;env (expand) -->
<g id="edge4" class="edge">
<title>[root] azurerm_container_app_environment_storage.crud&#45;container&#45;env&#45;storage (expand)&#45;&gt;[root] azurerm_container_app_environment.crud&#45;container&#45;env (expand)</title>
<path fill="none" stroke="black" d="M1199.55,-359.52C1234,-349.79 1277.07,-337.64 1313.09,-327.47"/>
<polygon fill="black" stroke="black" points="1313.89,-330.88 1322.57,-324.79 1311.99,-324.14 1313.89,-330.88"/>
</g>
<!-- [root] azurerm_storage_share.crud&#45;storage&#45;share (expand) -->
<g id="node13" class="node">
<title>[root] azurerm_storage_share.crud&#45;storage&#45;share (expand)</title>
<polygon fill="none" stroke="black" points="1157.11,-324 834.11,-324 834.11,-288 1157.11,-288 1157.11,-324"/>
<text text-anchor="middle" x="995.61" y="-302.3" font-family="Times,serif" font-size="14.00">azurerm_storage_share.crud&#45;storage&#45;share</text>
</g>
<!-- [root] azurerm_container_app_environment_storage.crud&#45;container&#45;env&#45;storage (expand)&#45;&gt;[root] azurerm_storage_share.crud&#45;storage&#45;share (expand) -->
<g id="edge5" class="edge">
<title>[root] azurerm_container_app_environment_storage.crud&#45;container&#45;env&#45;storage (expand)&#45;&gt;[root] azurerm_storage_share.crud&#45;storage&#45;share (expand)</title>
<path fill="none" stroke="black" d="M1102.14,-359.52C1083.53,-350.34 1060.54,-339.01 1040.68,-329.22"/>
<polygon fill="black" stroke="black" points="1042.49,-326.21 1031.98,-324.93 1039.4,-332.49 1042.49,-326.21"/>
</g>
<!-- [root] azurerm_linux_virtual_machine.locust&#45;vm (expand) -->
<g id="node5" class="node">
<title>[root] azurerm_linux_virtual_machine.locust&#45;vm (expand)</title>
<polygon fill="none" stroke="black" points="421.11,-468 108.11,-468 108.11,-432 421.11,-432 421.11,-468"/>
<text text-anchor="middle" x="264.61" y="-446.3" font-family="Times,serif" font-size="14.00">azurerm_linux_virtual_machine.locust&#45;vm</text>
</g>
<!-- [root] azurerm_network_interface.locust&#45;vm&#45;nic (expand) -->
<g id="node6" class="node">
<title>[root] azurerm_network_interface.locust&#45;vm&#45;nic (expand)</title>
<polygon fill="none" stroke="black" points="615.11,-324 304.11,-324 304.11,-288 615.11,-288 615.11,-324"/>
<text text-anchor="middle" x="459.61" y="-302.3" font-family="Times,serif" font-size="14.00">azurerm_network_interface.locust&#45;vm&#45;nic</text>
</g>
<!-- [root] azurerm_linux_virtual_machine.locust&#45;vm (expand)&#45;&gt;[root] azurerm_network_interface.locust&#45;vm&#45;nic (expand) -->
<g id="edge6" class="edge">
<title>[root] azurerm_linux_virtual_machine.locust&#45;vm (expand)&#45;&gt;[root] azurerm_network_interface.locust&#45;vm&#45;nic (expand)</title>
<path fill="none" stroke="black" d="M288.52,-431.59C323.26,-406.29 387.8,-359.29 426.92,-330.8"/>
<polygon fill="black" stroke="black" points="428.56,-333.94 434.58,-325.22 424.44,-328.28 428.56,-333.94"/>
</g>
<!-- [root] azurerm_public_ip.locust&#45;vm&#45;pub&#45;ip (expand) -->
<g id="node10" class="node">
<title>[root] azurerm_public_ip.locust&#45;vm&#45;pub&#45;ip (expand)</title>
<polygon fill="none" stroke="black" points="594.61,-180 324.61,-180 324.61,-144 594.61,-144 594.61,-180"/>
<text text-anchor="middle" x="459.61" y="-158.3" font-family="Times,serif" font-size="14.00">azurerm_public_ip.locust&#45;vm&#45;pub&#45;ip</text>
</g>
<!-- [root] azurerm_network_interface.locust&#45;vm&#45;nic (expand)&#45;&gt;[root] azurerm_public_ip.locust&#45;vm&#45;pub&#45;ip (expand) -->
<g id="edge7" class="edge">
<title>[root] azurerm_network_interface.locust&#45;vm&#45;nic (expand)&#45;&gt;[root] azurerm_public_ip.locust&#45;vm&#45;pub&#45;ip (expand)</title>
<path fill="none" stroke="black" d="M459.61,-287.59C459.61,-263.61 459.61,-220.14 459.61,-191.42"/>
<polygon fill="black" stroke="black" points="463.11,-191.62 459.61,-181.62 456.11,-191.62 463.11,-191.62"/>
</g>
<!-- [root] azurerm_network_interface.locust&#45;vm&#45;nic (expand)&#45;&gt;[root] azurerm_subnet.crud&#45;subnet (expand) -->
<g id="edge8" class="edge">
<title>[root] azurerm_network_interface.locust&#45;vm&#45;nic (expand)&#45;&gt;[root] azurerm_subnet.crud&#45;subnet (expand)</title>
<path fill="none" stroke="black" d="M524.29,-287.52C560.43,-277.75 605.64,-265.53 643.36,-255.34"/>
<polygon fill="black" stroke="black" points="644.09,-258.76 652.83,-252.78 642.27,-252.01 644.09,-258.76"/>
</g>
<!-- [root] azurerm_private_dns_a_record.crud&#45;ingress&#45;record (expand) -->
<g id="node7" class="node">
<title>[root] azurerm_private_dns_a_record.crud&#45;ingress&#45;record (expand)</title>
<polygon fill="none" stroke="black" points="1695.61,-756 1315.61,-756 1315.61,-720 1695.61,-720 1695.61,-756"/>
<text text-anchor="middle" x="1505.61" y="-734.3" font-family="Times,serif" font-size="14.00">azurerm_private_dns_a_record.crud&#45;ingress&#45;record</text>
</g>
<!-- [root] azurerm_private_dns_zone.crud&#45;dns (expand) -->
<g id="node8" class="node">
<title>[root] azurerm_private_dns_zone.crud&#45;dns (expand)</title>
<polygon fill="none" stroke="black" points="1580.11,-684 1307.11,-684 1307.11,-648 1580.11,-648 1580.11,-684"/>
<text text-anchor="middle" x="1443.61" y="-662.3" font-family="Times,serif" font-size="14.00">azurerm_private_dns_zone.crud&#45;dns</text>
</g>
<!-- [root] azurerm_private_dns_a_record.crud&#45;ingress&#45;record (expand)&#45;&gt;[root] azurerm_private_dns_zone.crud&#45;dns (expand) -->
<g id="edge9" class="edge">
<title>[root] azurerm_private_dns_a_record.crud&#45;ingress&#45;record (expand)&#45;&gt;[root] azurerm_private_dns_zone.crud&#45;dns (expand)</title>
<path fill="none" stroke="black" d="M1490.28,-719.7C1483.07,-711.56 1474.33,-701.69 1466.37,-692.7"/>
<polygon fill="black" stroke="black" points="1469.01,-690.4 1459.76,-685.24 1463.77,-695.04 1469.01,-690.4"/>
</g>
<!-- [root] azurerm_private_dns_zone.crud&#45;dns (expand)&#45;&gt;[root] azurerm_container_app_environment.crud&#45;container&#45;env (expand) -->
<g id="edge10" class="edge">
<title>[root] azurerm_private_dns_zone.crud&#45;dns (expand)&#45;&gt;[root] azurerm_container_app_environment.crud&#45;container&#45;env (expand)</title>
<path fill="none" stroke="black" d="M1443.61,-647.51C1443.61,-620.71 1443.61,-567.87 1443.61,-523 1443.61,-523 1443.61,-523 1443.61,-449 1443.61,-406.5 1421.06,-361.79 1404.08,-334.16"/>
<polygon fill="black" stroke="black" points="1407.04,-332.28 1398.72,-325.72 1401.13,-336.03 1407.04,-332.28"/>
</g>
<!-- [root] azurerm_private_dns_zone_virtual_network_link.crud&#45;dns&#45;vnet&#45;link (expand) -->
<g id="node9" class="node">
<title>[root] azurerm_private_dns_zone_virtual_network_link.crud&#45;dns&#45;vnet&#45;link (expand)</title>
<polygon fill="none" stroke="black" points="1297.61,-756 805.61,-756 805.61,-720 1297.61,-720 1297.61,-756"/>
<text text-anchor="middle" x="1051.61" y="-734.3" font-family="Times,serif" font-size="14.00">azurerm_private_dns_zone_virtual_network_link.crud&#45;dns&#45;vnet&#45;link</text>
</g>
<!-- [root] azurerm_private_dns_zone_virtual_network_link.crud&#45;dns&#45;vnet&#45;link (expand)&#45;&gt;[root] azurerm_private_dns_zone.crud&#45;dns (expand) -->
<g id="edge11" class="edge">
<title>[root] azurerm_private_dns_zone_virtual_network_link.crud&#45;dns&#45;vnet&#45;link (expand)&#45;&gt;[root] azurerm_private_dns_zone.crud&#45;dns (expand)</title>
<path fill="none" stroke="black" d="M1149.51,-719.52C1205.86,-709.45 1276.79,-696.79 1334.87,-686.42"/>
<polygon fill="black" stroke="black" points="1335.21,-689.91 1344.44,-684.71 1333.98,-683.02 1335.21,-689.91"/>
</g>
<!-- [root] azurerm_resource_group.crud (expand) -->
<g id="node11" class="node">
<title>[root] azurerm_resource_group.crud (expand)</title>
<polygon fill="none" stroke="black" points="863.11,-108 632.11,-108 632.11,-72 863.11,-72 863.11,-108"/>
<text text-anchor="middle" x="747.61" y="-86.3" font-family="Times,serif" font-size="14.00">azurerm_resource_group.crud</text>
</g>
<!-- [root] azurerm_public_ip.locust&#45;vm&#45;pub&#45;ip (expand)&#45;&gt;[root] azurerm_resource_group.crud (expand) -->
<g id="edge12" class="edge">
<title>[root] azurerm_public_ip.locust&#45;vm&#45;pub&#45;ip (expand)&#45;&gt;[root] azurerm_resource_group.crud (expand)</title>
<path fill="none" stroke="black" d="M531.54,-143.52C572.07,-133.67 622.86,-121.32 665.01,-111.07"/>
<polygon fill="black" stroke="black" points="665.73,-114.5 674.62,-108.74 664.08,-107.7 665.73,-114.5"/>
</g>
<!-- [root] provider[&quot;registry.terraform.io/hashicorp/azurerm&quot;] -->
<g id="node18" class="node">
<title>[root] provider[&quot;registry.terraform.io/hashicorp/azurerm&quot;]</title>
<polygon fill="none" stroke="black" points="747.61,-36 393.02,-18 747.61,0 1102.19,-18 747.61,-36"/>
<text text-anchor="middle" x="747.61" y="-14.3" font-family="Times,serif" font-size="14.00">provider[&quot;registry.terraform.io/hashicorp/azurerm&quot;]</text>
</g>
<!-- [root] azurerm_resource_group.crud (expand)&#45;&gt;[root] provider[&quot;registry.terraform.io/hashicorp/azurerm&quot;] -->
<g id="edge13" class="edge">
<title>[root] azurerm_resource_group.crud (expand)&#45;&gt;[root] provider[&quot;registry.terraform.io/hashicorp/azurerm&quot;]</title>
<path fill="none" stroke="black" d="M747.61,-71.7C747.61,-64.41 747.61,-55.73 747.61,-47.54"/>
<polygon fill="black" stroke="black" points="751.11,-47.62 747.61,-37.62 744.11,-47.62 751.11,-47.62"/>
</g>
<!-- [root] azurerm_storage_account.crud&#45;storage (expand) -->
<g id="node12" class="node">
<title>[root] azurerm_storage_account.crud&#45;storage (expand)</title>
<polygon fill="none" stroke="black" points="1143.11,-252 848.11,-252 848.11,-216 1143.11,-216 1143.11,-252"/>
<text text-anchor="middle" x="995.61" y="-230.3" font-family="Times,serif" font-size="14.00">azurerm_storage_account.crud&#45;storage</text>
</g>
<!-- [root] azurerm_storage_account.crud&#45;storage (expand)&#45;&gt;[root] azurerm_resource_group.crud (expand) -->
<g id="edge14" class="edge">
<title>[root] azurerm_storage_account.crud&#45;storage (expand)&#45;&gt;[root] azurerm_resource_group.crud (expand)</title>
<path fill="none" stroke="black" d="M978.85,-215.51C959.24,-195.88 925.06,-164.14 890.61,-144 868.6,-131.14 842.93,-120.45 819.46,-112.13"/>
<polygon fill="black" stroke="black" points="820.87,-108.92 810.28,-108.97 818.59,-115.53 820.87,-108.92"/>
</g>
<!-- [root] azurerm_storage_share.crud&#45;storage&#45;share (expand)&#45;&gt;[root] azurerm_storage_account.crud&#45;storage (expand) -->
<g id="edge15" class="edge">
<title>[root] azurerm_storage_share.crud&#45;storage&#45;share (expand)&#45;&gt;[root] azurerm_storage_account.crud&#45;storage (expand)</title>
<path fill="none" stroke="black" d="M995.61,-287.7C995.61,-280.41 995.61,-271.73 995.61,-263.54"/>
<polygon fill="black" stroke="black" points="999.11,-263.62 995.61,-253.62 992.11,-263.62 999.11,-263.62"/>
</g>
<!-- [root] azurerm_virtual_network.crud&#45;vnet (expand) -->
<g id="node16" class="node">
<title>[root] azurerm_virtual_network.crud&#45;vnet (expand)</title>
<polygon fill="none" stroke="black" points="882.11,-180 613.11,-180 613.11,-144 882.11,-144 882.11,-180"/>
<text text-anchor="middle" x="747.61" y="-158.3" font-family="Times,serif" font-size="14.00">azurerm_virtual_network.crud&#45;vnet</text>
</g>
<!-- [root] azurerm_subnet.crud&#45;subnet (expand)&#45;&gt;[root] azurerm_virtual_network.crud&#45;vnet (expand) -->
<g id="edge16" class="edge">
<title>[root] azurerm_subnet.crud&#45;subnet (expand)&#45;&gt;[root] azurerm_virtual_network.crud&#45;vnet (expand)</title>
<path fill="none" stroke="black" d="M725.77,-215.7C728.9,-208.15 732.64,-199.12 736.14,-190.68"/>
<polygon fill="black" stroke="black" points="739.35,-192.08 739.94,-181.5 732.88,-189.4 739.35,-192.08"/>
</g>
<!-- [root] azurerm_virtual_machine_extension.docker&#45;env&#45;provisioning (expand) -->
<g id="node15" class="node">
<title>[root] azurerm_virtual_machine_extension.docker&#45;env&#45;provisioning (expand)</title>
<polygon fill="none" stroke="black" points="463.11,-612 14.11,-612 14.11,-576 463.11,-576 463.11,-612"/>
<text text-anchor="middle" x="238.61" y="-590.3" font-family="Times,serif" font-size="14.00">azurerm_virtual_machine_extension.docker&#45;env&#45;provisioning</text>
</g>
<!-- [root] azurerm_virtual_machine_extension.docker&#45;env&#45;provisioning (expand)&#45;&gt;[root] azurerm_linux_virtual_machine.locust&#45;vm (expand) -->
<g id="edge17" class="edge">
<title>[root] azurerm_virtual_machine_extension.docker&#45;env&#45;provisioning (expand)&#45;&gt;[root] azurerm_linux_virtual_machine.locust&#45;vm (expand)</title>
<path fill="none" stroke="black" d="M241.79,-575.59C246.18,-551.61 254.14,-508.14 259.4,-479.42"/>
<polygon fill="black" stroke="black" points="262.84,-480.07 261.2,-469.6 255.96,-478.81 262.84,-480.07"/>
</g>
<!-- [root] azurerm_virtual_network.crud&#45;vnet (expand)&#45;&gt;[root] azurerm_resource_group.crud (expand) -->
<g id="edge18" class="edge">
<title>[root] azurerm_virtual_network.crud&#45;vnet (expand)&#45;&gt;[root] azurerm_resource_group.crud (expand)</title>
<path fill="none" stroke="black" d="M747.61,-143.7C747.61,-136.41 747.61,-127.73 747.61,-119.54"/>
<polygon fill="black" stroke="black" points="751.11,-119.62 747.61,-109.62 744.11,-119.62 751.11,-119.62"/>
</g>
<!-- [root] provider[&quot;registry.terraform.io/hashicorp/local&quot;] -->
<g id="node19" class="node">
<title>[root] provider[&quot;registry.terraform.io/hashicorp/local&quot;]</title>
<polygon fill="none" stroke="black" points="1085.61,-612 755.65,-594 1085.61,-576 1415.56,-594 1085.61,-612"/>
<text text-anchor="middle" x="1085.61" y="-590.3" font-family="Times,serif" font-size="14.00">provider[&quot;registry.terraform.io/hashicorp/local&quot;]</text>
</g>
<!-- [root] data.local_file.fqdn (expand)&#45;&gt;[root] provider[&quot;registry.terraform.io/hashicorp/local&quot;] -->
<g id="edge19" class="edge">
<title>[root] data.local_file.fqdn (expand)&#45;&gt;[root] provider[&quot;registry.terraform.io/hashicorp/local&quot;]</title>
<path fill="none" stroke="black" d="M940.06,-647.52C968.32,-637.32 1003.99,-624.45 1032.95,-614"/>
<polygon fill="black" stroke="black" points="1034.04,-617.33 1042.26,-610.64 1031.67,-610.74 1034.04,-617.33"/>
</g>
<!-- [root] terraform_data.ingress&#45;fqdn (expand) -->
<g id="node22" class="node">
<title>[root] terraform_data.ingress&#45;fqdn (expand)</title>
<polygon fill="none" stroke="black" points="737.61,-612 519.61,-612 519.61,-576 737.61,-576 737.61,-612"/>
<text text-anchor="middle" x="628.61" y="-590.3" font-family="Times,serif" font-size="14.00">terraform_data.ingress&#45;fqdn</text>
</g>
<!-- [root] data.local_file.fqdn (expand)&#45;&gt;[root] terraform_data.ingress&#45;fqdn (expand) -->
<g id="edge20" class="edge">
<title>[root] data.local_file.fqdn (expand)&#45;&gt;[root] terraform_data.ingress&#45;fqdn (expand)</title>
<path fill="none" stroke="black" d="M825.92,-647.52C789.22,-637.75 743.31,-625.53 705.01,-615.34"/>
<polygon fill="black" stroke="black" points="705.94,-611.96 695.37,-612.77 704.14,-618.73 705.94,-611.96"/>
</g>
<!-- [root] provider[&quot;terraform.io/builtin/terraform&quot;] -->
<g id="node20" class="node">
<title>[root] provider[&quot;terraform.io/builtin/terraform&quot;]</title>
<polygon fill="none" stroke="black" points="727.61,-468 438.87,-450 727.61,-432 1016.34,-450 727.61,-468"/>
<text text-anchor="middle" x="727.61" y="-446.3" font-family="Times,serif" font-size="14.00">provider[&quot;terraform.io/builtin/terraform&quot;]</text>
</g>
<!-- [root] terraform_data.ingress&#45;db (expand) -->
<g id="node21" class="node">
<title>[root] terraform_data.ingress&#45;db (expand)</title>
<polygon fill="none" stroke="black" points="849.61,-540 645.61,-540 645.61,-504 849.61,-504 849.61,-540"/>
<text text-anchor="middle" x="747.61" y="-518.3" font-family="Times,serif" font-size="14.00">terraform_data.ingress&#45;db</text>
</g>
<!-- [root] terraform_data.ingress&#45;db (expand)&#45;&gt;[root] azurerm_container_app.db (expand) -->
<g id="edge31" class="edge">
<title>[root] terraform_data.ingress&#45;db (expand)&#45;&gt;[root] azurerm_container_app.db (expand)</title>
<path fill="none" stroke="black" d="M845.01,-503.52C901.07,-493.45 971.64,-480.79 1029.42,-470.42"/>
<polygon fill="black" stroke="black" points="1029.71,-473.92 1038.94,-468.71 1028.48,-467.03 1029.71,-473.92"/>
</g>
<!-- [root] terraform_data.ingress&#45;db (expand)&#45;&gt;[root] provider[&quot;terraform.io/builtin/terraform&quot;] -->
<g id="edge32" class="edge">
<title>[root] terraform_data.ingress&#45;db (expand)&#45;&gt;[root] provider[&quot;terraform.io/builtin/terraform&quot;]</title>
<path fill="none" stroke="black" d="M742.66,-503.7C740.53,-496.24 737.98,-487.32 735.6,-478.97"/>
<polygon fill="black" stroke="black" points="739.02,-478.21 732.91,-469.56 732.29,-480.14 739.02,-478.21"/>
</g>
<!-- [root] terraform_data.ingress&#45;fqdn (expand)&#45;&gt;[root] terraform_data.ingress&#45;db (expand) -->
<g id="edge33" class="edge">
<title>[root] terraform_data.ingress&#45;fqdn (expand)&#45;&gt;[root] terraform_data.ingress&#45;db (expand)</title>
<path fill="none" stroke="black" d="M658.33,-575.52C673.49,-566.6 692.13,-555.63 708.45,-546.03"/>
<polygon fill="black" stroke="black" points="710.11,-549.11 716.96,-541.03 706.56,-543.08 710.11,-549.11"/>
</g>
<!-- [root] terraform_data.locust&#45;config&#45;provisioning (expand) -->
<g id="node23" class="node">
<title>[root] terraform_data.locust&#45;config&#45;provisioning (expand)</title>
<polygon fill="none" stroke="black" points="627.61,-540 315.61,-540 315.61,-504 627.61,-504 627.61,-540"/>
<text text-anchor="middle" x="471.61" y="-518.3" font-family="Times,serif" font-size="14.00">terraform_data.locust&#45;config&#45;provisioning</text>
</g>
<!-- [root] terraform_data.locust&#45;config&#45;provisioning (expand)&#45;&gt;[root] azurerm_linux_virtual_machine.locust&#45;vm (expand) -->
<g id="edge34" class="edge">
<title>[root] terraform_data.locust&#45;config&#45;provisioning (expand)&#45;&gt;[root] azurerm_linux_virtual_machine.locust&#45;vm (expand)</title>
<path fill="none" stroke="black" d="M419.9,-503.52C391.64,-493.96 356.44,-482.05 326.69,-472"/>
<polygon fill="black" stroke="black" points="328.03,-468.75 317.44,-468.87 325.79,-475.39 328.03,-468.75"/>
</g>
<!-- [root] terraform_data.locust&#45;config&#45;provisioning (expand)&#45;&gt;[root] provider[&quot;terraform.io/builtin/terraform&quot;] -->
<g id="edge35" class="edge">
<title>[root] terraform_data.locust&#45;config&#45;provisioning (expand)&#45;&gt;[root] provider[&quot;terraform.io/builtin/terraform&quot;]</title>
<path fill="none" stroke="black" d="M535.54,-503.52C574.99,-492.73 625.37,-478.96 664.63,-468.22"/>
<polygon fill="black" stroke="black" points="665.47,-471.62 674.19,-465.61 663.62,-464.87 665.47,-471.62"/>
</g>
<!-- [root] provider[&quot;registry.terraform.io/hashicorp/azurerm&quot;] (close) -->
<g id="node24" class="node">
<title>[root] provider[&quot;registry.terraform.io/hashicorp/azurerm&quot;] (close)</title>
<ellipse fill="none" stroke="black" cx="939.61" cy="-810" rx="313.04" ry="18"/>
<text text-anchor="middle" x="939.61" y="-806.3" font-family="Times,serif" font-size="14.00">[root] provider[&quot;registry.terraform.io/hashicorp/azurerm&quot;] (close)</text>
</g>
<!-- [root] provider[&quot;registry.terraform.io/hashicorp/azurerm&quot;] (close)&#45;&gt;[root] azurerm_container_app.app (expand) -->
<g id="edge21" class="edge">
<title>[root] provider[&quot;registry.terraform.io/hashicorp/azurerm&quot;] (close)&#45;&gt;[root] azurerm_container_app.app (expand)</title>
<path fill="none" stroke="black" d="M876.33,-791.97C839.94,-782.17 793.98,-769.79 755.64,-759.47"/>
<polygon fill="black" stroke="black" points="756.55,-756.09 745.98,-756.87 754.73,-762.85 756.55,-756.09"/>
</g>
<!-- [root] provider[&quot;registry.terraform.io/hashicorp/azurerm&quot;] (close)&#45;&gt;[root] azurerm_private_dns_a_record.crud&#45;ingress&#45;record (expand) -->
<g id="edge22" class="edge">
<title>[root] provider[&quot;registry.terraform.io/hashicorp/azurerm&quot;] (close)&#45;&gt;[root] azurerm_private_dns_a_record.crud&#45;ingress&#45;record (expand)</title>
<path fill="none" stroke="black" d="M1067.69,-793.16C1152.36,-782.69 1263.77,-768.91 1353.03,-757.87"/>
<polygon fill="black" stroke="black" points="1353.36,-761.36 1362.85,-756.65 1352.5,-754.41 1353.36,-761.36"/>
</g>
<!-- [root] provider[&quot;registry.terraform.io/hashicorp/azurerm&quot;] (close)&#45;&gt;[root] azurerm_private_dns_zone_virtual_network_link.crud&#45;dns&#45;vnet&#45;link (expand) -->
<g id="edge23" class="edge">
<title>[root] provider[&quot;registry.terraform.io/hashicorp/azurerm&quot;] (close)&#45;&gt;[root] azurerm_private_dns_zone_virtual_network_link.crud&#45;dns&#45;vnet&#45;link (expand)</title>
<path fill="none" stroke="black" d="M967.29,-791.7C981.43,-782.86 998.83,-771.99 1014.14,-762.41"/>
<polygon fill="black" stroke="black" points="1015.94,-765.42 1022.57,-757.15 1012.23,-759.48 1015.94,-765.42"/>
</g>
<!-- [root] provider[&quot;registry.terraform.io/hashicorp/azurerm&quot;] (close)&#45;&gt;[root] azurerm_virtual_machine_extension.docker&#45;env&#45;provisioning (expand) -->
<g id="edge24" class="edge">
<title>[root] provider[&quot;registry.terraform.io/hashicorp/azurerm&quot;] (close)&#45;&gt;[root] azurerm_virtual_machine_extension.docker&#45;env&#45;provisioning (expand)</title>
<path fill="none" stroke="black" d="M727.23,-796.43C551.91,-781.45 321.86,-749.65 257.61,-684 242.14,-668.2 237.9,-643.07 237.24,-623.54"/>
<polygon fill="black" stroke="black" points="240.74,-623.75 237.23,-613.75 233.74,-623.76 240.74,-623.75"/>
</g>
<!-- [root] provider[&quot;registry.terraform.io/hashicorp/local&quot;] (close) -->
<g id="node25" class="node">
<title>[root] provider[&quot;registry.terraform.io/hashicorp/local&quot;] (close)</title>
<ellipse fill="none" stroke="black" cx="312.61" cy="-810" rx="295.95" ry="18"/>
<text text-anchor="middle" x="312.61" y="-806.3" font-family="Times,serif" font-size="14.00">[root] provider[&quot;registry.terraform.io/hashicorp/local&quot;] (close)</text>
</g>
<!-- [root] provider[&quot;registry.terraform.io/hashicorp/local&quot;] (close)&#45;&gt;[root] data.local_file.fqdn (expand) -->
<g id="edge25" class="edge">
<title>[root] provider[&quot;registry.terraform.io/hashicorp/local&quot;] (close)&#45;&gt;[root] data.local_file.fqdn (expand)</title>
<path fill="none" stroke="black" d="M352.99,-791.84C401.8,-771.76 486.83,-738.86 562.61,-720 665.86,-694.3 697.12,-702.33 804.32,-684.5"/>
<polygon fill="black" stroke="black" points="804.87,-687.95 814.14,-682.82 803.7,-681.05 804.87,-687.95"/>
</g>
<!-- [root] provider[&quot;terraform.io/builtin/terraform&quot;] (close) -->
<g id="node26" class="node">
<title>[root] provider[&quot;terraform.io/builtin/terraform&quot;] (close)</title>
<ellipse fill="none" stroke="black" cx="532.61" cy="-666" rx="265.65" ry="18"/>
<text text-anchor="middle" x="532.61" y="-662.3" font-family="Times,serif" font-size="14.00">[root] provider[&quot;terraform.io/builtin/terraform&quot;] (close)</text>
</g>
<!-- [root] provider[&quot;terraform.io/builtin/terraform&quot;] (close)&#45;&gt;[root] terraform_data.ingress&#45;fqdn (expand) -->
<g id="edge26" class="edge">
<title>[root] provider[&quot;terraform.io/builtin/terraform&quot;] (close)&#45;&gt;[root] terraform_data.ingress&#45;fqdn (expand)</title>
<path fill="none" stroke="black" d="M556.34,-647.7C568.22,-639.03 582.8,-628.4 595.74,-618.96"/>
<polygon fill="black" stroke="black" points="597.57,-621.96 603.59,-613.24 593.45,-616.3 597.57,-621.96"/>
</g>
<!-- [root] provider[&quot;terraform.io/builtin/terraform&quot;] (close)&#45;&gt;[root] terraform_data.locust&#45;config&#45;provisioning (expand) -->
<g id="edge27" class="edge">
<title>[root] provider[&quot;terraform.io/builtin/terraform&quot;] (close)&#45;&gt;[root] terraform_data.locust&#45;config&#45;provisioning (expand)</title>
<path fill="none" stroke="black" d="M525.13,-647.59C514.73,-623.4 495.82,-579.36 483.48,-550.65"/>
<polygon fill="black" stroke="black" points="486.72,-549.31 479.55,-541.5 480.28,-552.07 486.72,-549.31"/>
</g>
<!-- [root] root -->
<g id="node27" class="node">
<title>[root] root</title>
<ellipse fill="none" stroke="black" cx="312.61" cy="-882" rx="58.49" ry="18"/>
<text text-anchor="middle" x="312.61" y="-878.3" font-family="Times,serif" font-size="14.00">[root] root</text>
</g>
<!-- [root] root&#45;&gt;[root] provider[&quot;registry.terraform.io/hashicorp/azurerm&quot;] (close) -->
<g id="edge28" class="edge">
<title>[root] root&#45;&gt;[root] provider[&quot;registry.terraform.io/hashicorp/azurerm&quot;] (close)</title>
<path fill="none" stroke="black" d="M366.88,-874.94C459.83,-864.56 652.64,-843.04 788.8,-827.84"/>
<polygon fill="black" stroke="black" points="789.1,-831.33 798.65,-826.74 788.32,-824.37 789.1,-831.33"/>
</g>
<!-- [root] root&#45;&gt;[root] provider[&quot;registry.terraform.io/hashicorp/local&quot;] (close) -->
<g id="edge29" class="edge">
<title>[root] root&#45;&gt;[root] provider[&quot;registry.terraform.io/hashicorp/local&quot;] (close)</title>
<path fill="none" stroke="black" d="M312.61,-863.7C312.61,-856.41 312.61,-847.73 312.61,-839.54"/>
<polygon fill="black" stroke="black" points="316.11,-839.62 312.61,-829.62 309.11,-839.62 316.11,-839.62"/>
</g>
<!-- [root] root&#45;&gt;[root] provider[&quot;terraform.io/builtin/terraform&quot;] (close) -->
<g id="edge30" class="edge">
<title>[root] root&#45;&gt;[root] provider[&quot;terraform.io/builtin/terraform&quot;] (close)</title>
<path fill="none" stroke="black" d="M254.5,-879.48C174.97,-876.02 38.53,-864.76 7.61,-828 -2.69,-815.76 -2.31,-804.56 7.61,-792 53.05,-734.46 239.16,-700.56 376.95,-682.89"/>
<polygon fill="black" stroke="black" points="377.05,-686.41 386.54,-681.68 376.18,-679.46 377.05,-686.41"/>
</g>
</g>
</svg>
